# xmcd
#
# Track frame offsets:
#	150
#	7945
#	16541
#	24094
#	32876
#	41008
#	49460
#	61329
#	70292
#	77844
#
# Disc length: 1105 seconds
#
# Revision: 0
# Processed by: cddbd v1.5.2PL0 Copyright (c) Steve Scherf et al.
# Submitted via: EZCDAudioConverter 1.3.4.1
#
DISCID=72044f0a
DTITLE=Various Artist - 好吃的食物
DYEAR=2014
DGENRE=
TTITLE0=水果歌
TTITLE1=蔬菜歌
TTITLE2=香香的肉
TTITLE3=米饭面条馒头包子
TTITLE4=做饭喽
TTITLE5=小小碗小小勺
TTITLE6=啊呜啊呜
TTITLE7=西瓜歌
TTITLE8=炒萝卜
TTITLE9=巧虎之歌
EXTD=
EXTT0=
EXTT1=
EXTT2=
EXTT3=
EXTT4=
EXTT5=
EXTT6=
EXTT7=
EXTT8=
EXTT9=
PLAYORDER=
